<svg width="1em" height="1em" class="{{ include.class }}" clip-rule="evenodd" fill-rule="evenodd" image-rendering="optimizeQuality" shape-rendering="geometricPrecision" text-rendering="geometricPrecision" version="1.1" viewBox="0 0 26077 26077" xmlns="http://www.w3.org/2000/svg">
 <path class="fil0" d="m16642 12252-2445 11-1026 1784c-594-123-1716-601-2326-838-660-256-557-77-795-754-128-364-309-785-403-1162l3889-35 17-2297 3835-30 2 1919-723-3zm-8435-4008c97 469 572 1469 784 1987 1395 3405 474 2653 2211 3328 551 214 1572 653 2105 757 123-351 816-1549 1039-1858l2528-16-6-1387 720-5 30-2224 1747-12c-122-160-2367-1621-2725-1853-474-307-880-568-1350-903-252-179-447-281-698-463-212-154-462-336-717-434z"/>
 <path class="fil0" d="m17066 16467-1549 72c96 970 676 1437 1643 1574 937 132 2039 50 2608-496 684-657 655-1590-90-2096-302-205-772-337-1178-436l-953-205c-647-177-271-728 388-653 488 55 438 238 642 570l1477-64c4-1205-1361-1407-2315-1379-2299 65-2742 1905-933 2588 489 185 1013 221 1480 387 628 222 443 821-124 900-665 94-1012-208-1096-762z"/>
 <path class="fil0" d="m7218 16322 566-1524 477 1542zm-2236 1746 1601 9 270-744 1792 1 239 728 1631 18c-28-263-1638-3985-1876-4533l-1740-12z"/>
 <path class="fil0" d="m13092 17334 519 1565-1090-15zm-2767 3280h1615l260-730 1758 13 241 717h1655l-1915-4519-1728 14z"/>
 <path class="fil0" d="m4897 16516-1324-356c-190 349-250 917-1103 869-1245-70-1100-2145-311-2463 730-294 1059 111 1344 524l1320-242c21-410-597-985-919-1141-1086-526-3972-516-3903 2140 76 2955 4613 2817 4896 669z"/>
 <polygon class="fil0" transform="translate(-1789 1437)" points="15616 1823 9409 5256 9875 6628 15616 3528"/>
 <path class="fil0" d="m15636 9405c65 217 40 149 362 154 638 10 389 3 457-154z"/>
 <path class="fil0" d="m22968 14542c156-46 300-64 431-60v-1102c-164-2-334 5-509 18-1503 117-2410 985-2365 2580 46 1673 1382 2288 2657 2321h212l5-1v-1103c-1537 122-1642-2298-431-2653z"/>
 <path class="fil0" d="m23678 14542c-157-46-300-64-431-60v-1102c164-2 333 5 509 18 1503 117 2410 985 2365 2580-47 1673-1383 2288-2657 2321h-213l-4-1v-1103c1536 122 1641-2298 431-2653z"/>
</svg>
