<svg width="1em" height="1em" class="{{ include.class }}" version="1.1" viewBox="0 0 150 155" xmlns="http://www.w3.org/2000/svg">
 <path d="m1.3 143c-0.18-14.1 0.00695-28.2 0.0284-42.3 9.57-2.4 19.2-4.36 29-5.98 2.41 1.99 6.26 1.88 0.846 2.44-0.184 2.33-0.14 4.87-0.236 7.28 3.38-1.61 1.44 3.29 1.94 5.19v19c-3.15-0.467-1.33 3.61-1.89 5.52-1.06 3.66 10.6 2.37 9.89-0.804-0.496-1.88 1.41-6.16-1.82-5.31 0.129-3.77-1.93-10.7 4.49-9.11 3.49 0.638 4.13-1.4 3.67-4.45 1.63-5.02-3.76-2.59-6.74-2.6-2.97 0.833-0.938-3.98-1.52-5.84-1.81-3.65 4.89-4.06 5.44-2.47-1.7 3.67 6.52 2.99 6.08 0.43-0.0907-2.6-0.609-5.48 2.7-5.87 2.95-2.28 4.58-5.52 6.07-8.85 2.46 2.88 5.61 5.62 0.135 4.91-2.94-0.438-4.04 2.98-6.02 4.55v15.4c1.97 1.62 3.37 4.67 6.38 3.72 2.14 0.461 6.78-1.62 5.78 2.04-0.519 2.05 1.09 6.23-0.858 6.86-1.95-0.468-6.25 1.42-5.22-2.03 0.0264-2.45-7.95-1.93-6.08 1.81-0.494 2.54 0.362 4.58 2.35 6.19 1.51 2.6 4.96 0.92 7.44 1.39 2.57 0.12 5.23 0.425 6.63-2.21 2.66-1.52 2.19-4.31 2.13-6.93-0.2-3.54 0.402-7.41-0.298-10.8-1.96-1.46-3.12-4.89-6.04-3.95-2.01-0.531-6.78 1.81-6.14-1.47 0.298-2.29-0.591-5.77 0.429-7.34 1.79 0.627 6.15-1.48 5.71 1.52-0.29 3 4.22 0.88 6.14 1.52-0.0833-2.68 0.013-5.01 3.08-2.9v28.3c2.01 1.74 3.33 5.08 6.49 4.18 2.85-0.203 6.04 0.406 8.68-0.302 1.6-1.78 4.27-3.12 3.39-5.93 1.25-4.19-1.85-4.92-5.48-4.32-0.417 2.41-1.49 4.26-5.35 3.14-3.32-0.0784-0.935-4.96-1.65-7.2v-16.4c1.9 0.634 6.42-1.36 6.4 1.19 1.76 0.967 7.48 2.07 6.19-1.97 0.416-2.2 4.63-0.414 6.57-1.02 5.45-1.94-0.192 7.77 0.591 10.6-1.66 4.56-0.533 13.8-4.07 15.5 0.525 2.13-1.08 6.18 0.853 7.05 2.51-0.782 9.59 2.96 8.71-1.49-0.498-1.89 1.17-5.77-1.89-5.32-1.45-4.73 7.98-4.15 6.84 0.149-2.46 8e-3 -1.4 3.83-1.7 6.12 0.305 2.75 12.6 4.28 9.5-1.62-0.0241-4.05-3.06-6.02-2.71-11.1-1.36-8.25-2.73-16.5-4.1-24.7-3.67-0.336-7.72-0.684-2.46-2.64 12.2 1.23 24.4 3.97 36.4 6.81 0.0549 14.2 0.11 28.5 0.165 42.7-25.6-4.11-51.5-6.33-77.4-5.86-22.5-0.14-45 2.27-67.3 5.76l-0.137-0.36zm142-6.11c1.52-4.11-3.09-2.95-3.31-6.42-1.38-3.5-3.5-7.14 0.946-8.9 2.26-1.52 0.559-4.95 1.08-7.3-0.335-3.3 1.13-7.23-1.88-9.59-2.06-4.24-7.36-3.43-11.2-4.84-4.53-1.77-8.54-2.49-7.09 3.28-0.422 2.91 2.79 2.98 1.6 6.49v20.3c-2.94-0.919-2.67 9.36 1.81 7.34 5.17 2.16 7.19 0.449 6.07-4.41 0.137-2.5-3.11-1.87-1.81-5.36 2e-3 -1.86-0.667-6.45 2-4.43 1.61 5.39 3.4 10.7 5.2 16.1 3.24 0.109 7.91 3.38 6.56-2.23zm-11.2-20.9c-3.7 0.331-2.11-3.67-2.52-6.05-1.71-4.8 4.46-2.15 6.21-1.03 0.0566 2.56 0.113 5.13 0.17 7.69-1.31-0.0302-2.59-0.356-3.86-0.618zm-115 22c2.65-0.412 5.61-0.248 7-2.99 2.39-1.57 2.27-4.09 2.1-6.64v-23.3c3.11 0.485 0.972-4.27 1.6-6.26-0.547-1.63-11.2-0.865-9.6 3.39 0.0481 5.34-0.378 5.09 1.92 4.59-0.0549 7.9-0.11 15.8-0.165 23.7-2.9 0.069-8.32 3.2-6.88-1.83v-20.7c3.25 0.282 1.49-3.55 1.92-5.58 0.171-4.26-6.82 0.949-9.6 0.823 0.606 1.9-1.33 7.05 1.22 6.46 0.891 1.56 0.131 5.24 0.384 7.63v18.5c2.23 1.64 4.09 4.49 7.21 2.67 0.961-0.151 1.92-0.298 2.88-0.442zm90.1-20.3c-3.54-0.487 0.463-6.7 0.146-9.53-0.3 2.11 4.09 10.8-0.146 9.53zm-26.7-15.5c-8.96-0.771-16.5-7.19-21.1-14.6 2.3-5.05 7.1-9.59 13-9.26 7.28-0.283 14.8 1.96 20.5 6.46-1.84-2.15-3.87-4.04-6.56-5.07-0.291-5.05 5.34-7.76 9.44-9.13-1.94 1.25-5.6-1.38-5.35 0.513-0.489 2.36-5.45 4.02-5.37 7.67-3 0.0381-7.62-1.66-11.4-1.75-8.42-3.68-18.3-5.16-27-1.45 0.22-4.74 5.05-4.53 8.58-5.05 6.49 0.264 13-0.0476 19.4 1.21-7.63-2.37-15.8-3.1-23.7-2.21-0.625 0.11 2.35-2.99-1.08-0.558-3.6 2.06-4.42 6.66-6.79 9.13-6.17 5.1 3.96-2.4 6.62-2.54 7.19-2.17 14.9-1.03 21.8 1.53-3.72 1.01-7.93 2.35-10.4 5.72-4.61 4.41-3.9 12.9-10.7 15.3-3.34 1.93-8.24 1.27-11.2 0.693-1.56 1.57-4.36-1.33-2.24-2.86-2.79 0.408-6.98-1.12-7.47-4.8-0.34-2.46 0.306-4.71 1.5-6.84-2.06-4.4-1.73-9.92 1.67-13.6 1.2-2.26 5.16-2.94 3.48-4.15 2.72-5.61 9.66-7.03 15.4-7.03 3.59 2.14 4.24-1.42 7.84-2.05 2.56-0.917 5.38-0.213 2.04 2.05 1.56-0.941 4.19-5.31 7.89-3.48 3.62-0.285 6.51-1.93 1.45-1.04-1.84-0.0701-5.99 0.691-5.01-2.37-1.69-2.99 5.84-1.29 3.67-2.7-4.18 2.14-5.81-5-2.02-2.67-1.59-3.74-7.19-1.53-8.6-5.4-2.04-2.3-4.87-3.57 0.395-3.63-0.766-1.93-6.01 0.736-8.09 1-2.36-1.71-4.16-8.52 0.0134-5.51 2.02-3.05 5.93-4.57 9.37-3.07 4.33 1.21 9.22 1.64 13.1 3.77 3.19 2.3-2.66-3.13-4.77-2.24-4.57-0.963-9.2-2.95-13.9-2.44-3.17 4-5.79 2.85-8.71-0.487-2.11-2.12-1.79-4.89 0.673-6.56-0.393-3.19 6.7-4 6.77-2.17 2.4-2.54 4.66 0.0267 7.6-0.527 2.97 0.989 3.21 1.83 4.99 1.63 3.49 2.45 8.72 2.77 8.78 0.701 2.35 1.96-2.15-3.58-3.74-1.75-1.45 3.16-11.8-1.05-6.92-1.62 3.21-0.254 6.46-0.286 9.5-1.49 3.35 2.88 4.75 1.55 8.34 2.87 1.49 3.45 0.636 0.545 4.06-0.204 2.65 0.881 2.03-3.69 4.99-2.99 0.421-2.45 3.81-2.59 4.89-4.93 2.38-2.8 3.78-7.7 7.02-9.79 0.0834 3-1.83 4.19-2.21 6.42-1.01 3.71-3.89 6.12-5.54 9.18-2.15 1.23-2 4.4-4.79 4.75-0.812 2.11-2.56 4.73-5.54 3.98 2.35 1.74 6.15 0.115 6.37-2.89 2.27 0.277 3.01-2.52 3.78-3.93 2.32-1.28 3.53-4.31 4.41-6.49 2.1-1.51 3.21-9.41 2.54-3.01-0.603 5.34-0.875 12 4.41 15.2 2.05 2.12 6.26 1.21 7.89 2.12-2.07 0.0859-4.94 1.42-7.39 1.59-4.22-0.0562-8.74 0.788-12.8-0.317-1.85-2.37-7.42 2.46-3.8 1.09 2.37-1.48 4.31 1.69 6.43 0.123 4.27 0.267 9.04 1.02 13-0.637 2.79-0.411 5.4-1.7 8.53-2.33 2.8 1.64-4.01 2.46-4.75 3.93-2.07 0.327-3.81 1.47-5.93 1.8-2.18 0.395-4.61 0.831-6.83 1.3-2.02-0.379-4.16 1.9-6.2 0.212-1.81 2.33-5.73-1.12-6 0.142 1.53 1.93 4.08 2.57 6.14 1.04 2.76 1.97 5.05-1.1 7.91-0.35 1.7-1.14 5.85-1.37 6.07-1.23-4.48 3.01-8.97 7.63-8.55 13.4-0.617 2.17 2.17 6.75-0.752 3.02-2.62-3.58-6.9-7.56-10.3-11.1-2.19-2.15-4.67-0.6-0.947 0.417 1.23 2.01 3.02 3.15 4.3 4.83 1.51 1.57 3.31 2.68 4.4 4.52 1.49 1.59 6.05 5.1 5.1 6.91-3.78-1.64-6.34-6.13-10.1-8.16-2.26-1.78-4.3-3.26-6.87-4.21-2.79-2.92-2.44 0.816 0.289 1.36 2 1.13 3.55 2.38 5.5 3.65 4.57 2.86 9.91 7.22 2.24 4.1-3.55-0.74-7.55 0.0159-9.71 3.16-3.41 6.13-2.31-7.47-4.65-10.3-3.47-3.74 1.84 5.46 1.07 7.42 0.672 1.85 2.2 9.41-0.288 8.35 0.0984-3.91-2.62-7.72-3.58-11.4-0.823-1.6-3.67-3.8-2.63-6.29-2.25 2.05 2.94 8.2-1.21 2.86-2.48-3.57-6.55-5.92-10.7-6.91 8.5 3.94 14.4 12.2 17.4 20.8 1.87 6.84 3.08-3.94 6.47-5.08 3.98-3.09 9.71-2.21 14-0.107 4.03 4.1 3.06-2.51 6.44 0.163 6.6 3.35 13.6 9.77 12.1 17.9 0.227 2.83-4.2 2.83-3.17 4.72 0.169 3.29 0.779 6.92-1.28 9.78-1.66 3.3-5.13 5.18-8.39 6.66-1.49 2.34-2.27 6.25-5.93 5.53-4.27 0.694-2.86-1.68-6.88 0.589-3.72 1.33-7.92 1.88-11.9 1.38zm23.8-21.7c0.75-4.19 0.162-1.9-1.14 0.673-1.84 1.65 1.06-0.215 1.14-0.673zm7.95-9.45c1.27-5.35-3.35 3.3-0.422 3.21 0.534-0.961 0.352-2.15 0.422-3.21zm-50.3-7.62c4.46 0.169 9 0.637 2.77-0.587-2.85 0.433-6.45-1.21-8.69 0.997 1.34-0.0135 3.99-0.696 5.92-0.41zm33.9-4.44c4.64-1.79-3.98-0.463-3.94 2.44-0.138 0.43 2.98-2.3 3.94-2.44zm-18.1-18.1c2.86 0.43 2.13-5.33 1.35-3.55 0.352 2.16-3.51 4.28-4.81 2.73-1.89-2.69-8.26-3.85-9.01-3.62 3.5 0.969 7.14 2.14 9.21 5.32 1.23 0.205 2.22-0.263 3.26-0.88zm-68.8 55.1c4.35-2.79 15.3-1.61 16-6.08-4.79-12.4-9.37-24.8-13.8-37.3 8.65-4.71 18.2-7.97 27.6-10.7 3.68-0.403 8.01-3.16 11.3-1.91 1.8 2.68 4.16-1.96 6.12 0.437-5.17 1.84-12.9 2.58-18.9 4.75-7.66 2.29-15 5.39-22.2 8.86 3.6 13.1 9.07 25.7 12.8 38.8-7.73 1.29-15.4 2.99-23 4.61 1.36-0.549 2.77-0.978 4.16-1.44zm129 0.479c-5.59-2.54-19.7 0.0605-13.8-9.65 3.07-10.9 6.01-21.9 8.66-32.9-9.23-5.1-19.6-7.95-29.8-10.8 1.83-5.7 8.75 0.22 12.7 0.364 7.11 2.31 14.1 5.05 20.9 8.23-3.67 13.5-7.72 26.8-11.8 40.1 4.62 2.1 13 3.62 15.7 5.27l-1.04-0.216-1.54-0.374zm-20.5-8.67c-3.5-0.348 0.652-5.24-0.646-7.98-0.297-3.37 3.66-4.79 6.33-3.01 2.81 0.419-0.681 4.26-0.646 6.18-1.28 2.6-0.61 6.81-5.04 4.81zm-89.1-1.14c-0.0369-2.84-4.2-7.95-2.56-9.81 4.91-2.48 1.89 3.39 3.73 5.93 1.24 1.1-0.427 4.85-1.17 3.88zm5.72-19c-5.39-7.96 4.65-7.51 9.77-9.12 7.25-0.628-3.85 2.37-5.36 3.9-2.14 1.02-2.97 3.5-3.79 5.26-0.276 0.0547-0.627 0.909-0.622-0.0408zm-13-3.72c0.612-2.82-4.49-8.45-0.402-9.59 4.55-2.13 10.7-6.02 10.3 1.84 4.96 6.82-6.95 8.89-9.9 7.75zm105 1.03c-2.82-2.51-12.2-1.31-10.1-6.48 1.03-4.46 1.46-10.7 7.21-6.05 5.59 0.892 7.3 4.41 4.7 9.64-0.495 1.02 0.062 3.65-1.78 2.9zm-80.1-7.87c-0.488-3.56-1.87-7.46-1.84-10.9 4.66-1.07 9.82-2.74 14.5-2.63 3.01 1.4 1.84 5.12 2.54 7.8 1.78 4.31-1.5 5.22-5.32 4.94-2.76-0.358-8.22 2.71-9.83 0.767zm16-1.24c3.9-1.44 2.03 1.37 0 0zm14.1-3.36c-0.413-1.84 1.27 1.28 0 0zm25.6-1.96c-0.43-1.62-0.162-6.57 1.7-4.39-0.0757 0.591-1.46 10.2-1.7 4.39zm-27.1-0.538c-1.59-2.43 1.94 2.08 0 0zm-3.36-27.4c-3.37-0.0692 4.13-3.11 1.55 0.103zm11.4-3.13c-5.67-0.011-5.3-2.2-2.3-5.35 1.46-2.94 4.25 4.12 3.83 5.39-0.387 0.778-0.978 0.0933-1.53-0.0464zm-12.6-3.16c0.0898-6.41 6.43-0.591 4.25 0.443-1.46-0.493-7.52 3.5-4.25-0.443z" stroke-width=".32"/>
</svg>
